<svg width="546" height="536" viewBox="0 0 546 536" fill="none" xmlns="http://www.w3.org/2000/svg">
<g filter="url(#filter0_b)">
<rect x="1" y="1" width="511" height="534" rx="20" fill="url(#paint0_linear)"/>
<path d="M286.185 48.0678C287.691 48.0678 288.911 46.502 288.911 44.5705C288.911 42.639 287.691 41.0732 286.185 41.0732C284.679 41.0732 283.459 42.639 283.459 44.5705C283.459 46.502 284.679 48.0678 286.185 48.0678Z" fill="#6C63FF"/>
<path d="M275.32 48.0678C276.826 48.0678 278.046 46.502 278.046 44.5705C278.046 42.639 276.826 41.0732 275.32 41.0732C273.814 41.0732 272.594 42.639 272.594 44.5705C272.594 46.502 273.814 48.0678 275.32 48.0678Z" fill="#6C63FF"/>
<path d="M264.455 48.0678C265.961 48.0678 267.181 46.502 267.181 44.5705C267.181 42.639 265.961 41.0732 264.455 41.0732C262.949 41.0732 261.729 42.639 261.729 44.5705C261.729 46.502 262.949 48.0678 264.455 48.0678Z" fill="#6C63FF"/>
<path d="M253.59 48.0678C255.096 48.0678 256.316 46.502 256.316 44.5705C256.316 42.639 255.096 41.0732 253.59 41.0732C252.085 41.0732 250.864 42.639 250.864 44.5705C250.864 46.502 252.085 48.0678 253.59 48.0678Z" fill="#6C63FF"/>
<path d="M286.185 62.6696C287.691 62.6696 288.911 61.1038 288.911 59.1723C288.911 57.2408 287.691 55.675 286.185 55.675C284.679 55.675 283.459 57.2408 283.459 59.1723C283.459 61.1038 284.679 62.6696 286.185 62.6696Z" fill="#6C63FF"/>
<path d="M275.32 62.6696C276.826 62.6696 278.046 61.1038 278.046 59.1723C278.046 57.2408 276.826 55.675 275.32 55.675C273.814 55.675 272.594 57.2408 272.594 59.1723C272.594 61.1038 273.814 62.6696 275.32 62.6696Z" fill="#6C63FF"/>
<path d="M264.455 62.6696C265.961 62.6696 267.181 61.1038 267.181 59.1723C267.181 57.2408 265.961 55.675 264.455 55.675C262.949 55.675 261.729 57.2408 261.729 59.1723C261.729 61.1038 262.949 62.6696 264.455 62.6696Z" fill="#6C63FF"/>
<path d="M253.59 62.6696C255.096 62.6696 256.316 61.1038 256.316 59.1723C256.316 57.2408 255.096 55.675 253.59 55.675C252.085 55.675 250.864 57.2408 250.864 59.1723C250.864 61.1038 252.085 62.6696 253.59 62.6696Z" fill="#6C63FF"/>
<path d="M286.185 77.2714C287.691 77.2714 288.911 75.7056 288.911 73.7741C288.911 71.8426 287.691 70.2768 286.185 70.2768C284.679 70.2768 283.459 71.8426 283.459 73.7741C283.459 75.7056 284.679 77.2714 286.185 77.2714Z" fill="#6C63FF"/>
<path d="M275.32 77.2714C276.826 77.2714 278.046 75.7056 278.046 73.7741C278.046 71.8426 276.826 70.2768 275.32 70.2768C273.814 70.2768 272.594 71.8426 272.594 73.7741C272.594 75.7056 273.814 77.2714 275.32 77.2714Z" fill="#6C63FF"/>
<path d="M264.455 77.2714C265.961 77.2714 267.181 75.7056 267.181 73.7741C267.181 71.8426 265.961 70.2768 264.455 70.2768C262.949 70.2768 261.729 71.8426 261.729 73.7741C261.729 75.7056 262.949 77.2714 264.455 77.2714Z" fill="#6C63FF"/>
<path d="M253.59 77.2714C255.096 77.2714 256.316 75.7056 256.316 73.7741C256.316 71.8426 255.096 70.2768 253.59 70.2768C252.085 70.2768 250.864 71.8426 250.864 73.7741C250.864 75.7056 252.085 77.2714 253.59 77.2714Z" fill="#6C63FF"/>
<path d="M286.185 91.8732C287.691 91.8732 288.911 90.3074 288.911 88.3759C288.911 86.4444 287.691 84.8786 286.185 84.8786C284.679 84.8786 283.459 86.4444 283.459 88.3759C283.459 90.3074 284.679 91.8732 286.185 91.8732Z" fill="#6C63FF"/>
<path d="M275.32 91.8732C276.826 91.8732 278.046 90.3074 278.046 88.3759C278.046 86.4444 276.826 84.8786 275.32 84.8786C273.814 84.8786 272.594 86.4444 272.594 88.3759C272.594 90.3074 273.814 91.8732 275.32 91.8732Z" fill="#6C63FF"/>
<path d="M264.455 91.8732C265.961 91.8732 267.181 90.3074 267.181 88.3759C267.181 86.4444 265.961 84.8786 264.455 84.8786C262.949 84.8786 261.729 86.4444 261.729 88.3759C261.729 90.3074 262.949 91.8732 264.455 91.8732Z" fill="#6C63FF"/>
<path d="M253.59 91.8732C255.096 91.8732 256.316 90.3074 256.316 88.3759C256.316 86.4444 255.096 84.8786 253.59 84.8786C252.085 84.8786 250.864 86.4444 250.864 88.3759C250.864 90.3074 252.085 91.8732 253.59 91.8732Z" fill="#6C63FF"/>
<path d="M286.185 106.475C287.691 106.475 288.911 104.909 288.911 102.978C288.911 101.046 287.691 99.4804 286.185 99.4804C284.679 99.4804 283.459 101.046 283.459 102.978C283.459 104.909 284.679 106.475 286.185 106.475Z" fill="#6C63FF"/>
<path d="M275.32 106.475C276.826 106.475 278.046 104.909 278.046 102.978C278.046 101.046 276.826 99.4804 275.32 99.4804C273.814 99.4804 272.594 101.046 272.594 102.978C272.594 104.909 273.814 106.475 275.32 106.475Z" fill="#6C63FF"/>
<path d="M264.455 106.475C265.961 106.475 267.181 104.909 267.181 102.978C267.181 101.046 265.961 99.4804 264.455 99.4804C262.949 99.4804 261.729 101.046 261.729 102.978C261.729 104.909 262.949 106.475 264.455 106.475Z" fill="#6C63FF"/>
<path d="M253.59 106.475C255.096 106.475 256.316 104.909 256.316 102.978C256.316 101.046 255.096 99.4804 253.59 99.4804C252.085 99.4804 250.864 101.046 250.864 102.978C250.864 104.909 252.085 106.475 253.59 106.475Z" fill="#6C63FF"/>
<path d="M286.185 121.077C287.691 121.077 288.911 119.511 288.911 117.58C288.911 115.648 287.691 114.082 286.185 114.082C284.679 114.082 283.459 115.648 283.459 117.58C283.459 119.511 284.679 121.077 286.185 121.077Z" fill="#6C63FF"/>
<path d="M275.32 121.077C276.826 121.077 278.046 119.511 278.046 117.58C278.046 115.648 276.826 114.082 275.32 114.082C273.814 114.082 272.594 115.648 272.594 117.58C272.594 119.511 273.814 121.077 275.32 121.077Z" fill="#6C63FF"/>
<path d="M264.455 121.077C265.961 121.077 267.181 119.511 267.181 117.58C267.181 115.648 265.961 114.082 264.455 114.082C262.949 114.082 261.729 115.648 261.729 117.58C261.729 119.511 262.949 121.077 264.455 121.077Z" fill="#6C63FF"/>
<path d="M253.59 121.077C255.096 121.077 256.316 119.511 256.316 117.58C256.316 115.648 255.096 114.082 253.59 114.082C252.085 114.082 250.864 115.648 250.864 117.58C250.864 119.511 252.085 121.077 253.59 121.077Z" fill="#6C63FF"/>
<path d="M262.23 212.989V214.07C262.231 215.863 262.787 217.581 263.775 218.849C264.763 220.116 266.102 220.829 267.499 220.83H305.44C306.837 220.83 308.177 220.117 309.165 218.85C310.153 217.582 310.708 215.863 310.709 214.07V212.989C310.712 211.407 310.279 209.874 309.486 208.662C309.223 208.26 308.924 207.897 308.597 207.58C308.597 207.58 287.738 206.975 287.738 206.228H267.499C266.102 206.231 264.763 206.944 263.775 208.211C262.788 209.478 262.232 211.196 262.23 212.989V212.989Z" fill="#E6E6E6"/>
<path d="M289.515 220.562H284.034V265.99H289.515V220.562Z" fill="#E6E6E6"/>
<path d="M305.112 265.743C305.112 266.502 296.808 266.036 286.564 266.036C276.32 266.036 268.015 266.502 268.015 265.743C268.015 264.983 276.32 258.959 286.564 258.959C296.808 258.959 305.112 264.983 305.112 265.743Z" fill="#E6E6E6"/>
<path d="M297.578 212.071C297.973 211.39 298.248 210.606 298.382 209.774C298.516 208.942 298.506 208.083 298.353 207.257C298.2 206.43 297.907 205.657 297.496 204.991C297.085 204.326 296.565 203.784 295.973 203.404L284.358 152.63L275.513 158.187L289.712 206.349C289.28 207.667 289.24 209.143 289.6 210.496C289.959 211.85 290.694 212.987 291.663 213.692C292.633 214.398 293.771 214.622 294.861 214.323C295.951 214.025 296.918 213.223 297.578 212.071L297.578 212.071Z" fill="#A0616A"/>
<path d="M286.989 161.109L277.09 164.547C276.808 164.645 276.513 164.664 276.226 164.602C275.938 164.541 275.664 164.4 275.422 164.191C275.18 163.981 274.976 163.707 274.825 163.387C274.673 163.067 274.577 162.709 274.543 162.338L273.346 149.311C272.964 147.459 273.17 145.489 273.919 143.832C274.668 142.175 275.898 140.967 277.34 140.472C278.782 139.977 280.319 140.235 281.612 141.191C282.906 142.147 283.852 143.722 284.241 145.571L288.32 157.553C288.436 157.896 288.494 158.268 288.489 158.642C288.483 159.016 288.415 159.385 288.289 159.722C288.163 160.059 287.981 160.358 287.757 160.597C287.533 160.837 287.271 161.011 286.989 161.109H286.989Z" fill="#6C63FF"/>
<path d="M300.165 260.418L305.333 260.417L307.792 243.222H300.164L300.165 260.418Z" fill="#A0616A"/>
<path d="M298.847 258.253L309.025 258.253H309.025C309.877 258.253 310.72 258.468 311.507 258.886C312.294 259.304 313.009 259.917 313.611 260.69C314.214 261.462 314.692 262.38 315.018 263.389C315.344 264.399 315.511 265.481 315.511 266.574V266.844L298.847 266.845L298.847 258.253Z" fill="#2F2E41"/>
<path d="M306.164 251.197C306.104 251.197 306.043 251.193 305.983 251.186L298.83 250.518C298.541 250.483 298.262 250.364 298.014 250.169C297.766 249.974 297.557 249.709 297.402 249.394C297.247 249.079 297.15 248.723 297.119 248.352C297.088 247.982 297.124 247.607 297.224 247.257L306.796 219.668C306.865 219.422 306.893 219.16 306.878 218.9C306.864 218.639 306.808 218.386 306.714 218.154C306.619 217.92 306.488 217.714 306.327 217.55C306.166 217.386 305.98 217.268 305.781 217.203C301.28 215.693 289.732 211.674 279.735 206.971C275.452 204.957 272.754 202.045 271.717 198.318C270.35 193.403 272.373 188.922 272.46 188.734L272.527 188.586L281.934 189.683L292.132 190.796L314.481 206.17C316.353 207.469 317.776 209.625 318.465 212.209C319.153 214.794 319.058 217.616 318.198 220.114L307.895 249.754C307.746 250.184 307.503 250.548 307.196 250.804C306.889 251.06 306.53 251.197 306.164 251.197V251.197Z" fill="#2F2E41"/>
<path d="M283.57 135.1C289.288 135.1 293.924 129.153 293.924 121.817C293.924 114.481 289.288 108.534 283.57 108.534C277.852 108.534 273.216 114.481 273.216 121.817C273.216 129.153 277.852 135.1 283.57 135.1Z" fill="#A0616A"/>
<path d="M297.214 259.877L302.382 259.877L304.841 242.681H297.213L297.214 259.877Z" fill="#A0616A"/>
<path d="M295.896 257.712L306.074 257.712H306.074C306.926 257.712 307.769 257.927 308.556 258.345C309.343 258.763 310.058 259.376 310.661 260.149C311.263 260.922 311.741 261.839 312.067 262.849C312.393 263.858 312.56 264.94 312.56 266.033V266.303L295.896 266.304L295.896 257.712Z" fill="#2F2E41"/>
<path d="M303.213 252.819C303.153 252.819 303.092 252.816 303.032 252.808L295.879 252.14C295.59 252.106 295.311 251.986 295.063 251.792C294.815 251.597 294.606 251.332 294.451 251.017C294.296 250.702 294.199 250.345 294.168 249.974C294.137 249.604 294.173 249.229 294.273 248.879L303.845 221.29C303.914 221.044 303.942 220.783 303.928 220.522C303.913 220.262 303.857 220.008 303.763 219.777C303.669 219.543 303.537 219.337 303.376 219.173C303.215 219.009 303.03 218.89 302.831 218.825C298.33 217.316 286.781 213.296 276.784 208.594C272.501 206.579 269.804 203.668 268.767 199.94C267.399 195.026 269.422 190.544 269.509 190.356L269.577 190.209L278.984 191.306L289.181 192.418L311.53 207.792C313.402 209.091 314.825 211.248 315.514 213.832C316.203 216.416 316.107 219.238 315.247 221.736L304.944 251.377C304.795 251.806 304.552 252.171 304.245 252.427C303.938 252.683 303.579 252.819 303.213 252.819V252.819Z" fill="#2F2E41"/>
<path d="M286.763 142.632L275.803 137.765C275.803 137.765 268.922 144.546 272.228 161.37C273.953 170.052 273.451 179.216 270.794 187.502C270.474 188.527 270.106 189.526 269.69 190.493C269.69 190.493 281.915 209.422 293.297 195.361L288.871 168.05C288.871 168.05 295.827 149.933 286.763 142.632Z" fill="#2F2E41"/>
<path d="M284.856 135.552C283.382 132.722 282.219 128.798 283.841 126.106C285.443 123.448 288.602 123.84 291.054 122.664C294.471 121.026 296.452 115.877 295.834 111.266C295.216 106.655 292.331 102.832 288.894 101.268C285.456 99.7044 281.58 100.213 278.214 102.014C274.071 104.231 270.516 108.52 269.026 113.953C267.535 119.386 268.332 125.909 271.424 130.085C274.739 134.562 279.942 135.755 284.755 135.683" fill="#2F2E41"/>
<path d="M275.224 111.414C273.367 113.353 270.534 112.492 268.541 110.79C266.548 109.088 264.93 106.665 262.774 105.33C258.972 102.978 254.375 104.542 250.674 107.147C246.974 109.753 243.694 113.353 239.785 115.398C235.876 117.443 230.888 117.544 227.929 113.683C227.2 116.39 227.141 119.32 227.758 122.072C228.376 124.824 229.64 127.265 231.379 129.061C233.117 130.858 235.246 131.922 237.473 132.109C239.701 132.297 241.919 131.598 243.826 130.108C248.109 126.761 250.474 119.744 255.278 117.897C257.936 116.875 260.79 117.698 263.477 118.59C266.163 119.481 268.964 120.445 271.676 119.686C274.387 118.927 276.923 115.801 276.578 112.269L275.224 111.414Z" fill="#2F2E41"/>
<path d="M308.929 236.571C307.833 227.436 307.833 218.139 308.929 209.004C308.999 208.46 309.217 207.965 309.544 207.608C309.871 207.251 310.286 207.055 310.715 207.054H327.524C327.796 207.052 328.065 207.131 328.311 207.284C328.556 207.436 328.77 207.658 328.938 207.933C329.11 208.212 329.23 208.537 329.289 208.884C329.348 209.232 329.345 209.591 329.279 209.937C327.706 218.385 327.706 227.19 329.279 235.639C329.345 235.984 329.348 236.344 329.289 236.691C329.23 237.038 329.11 237.363 328.938 237.642C328.77 237.917 328.556 238.139 328.311 238.291C328.065 238.444 327.796 238.523 327.524 238.521H310.715C310.286 238.52 309.871 238.324 309.544 237.967C309.217 237.61 308.999 237.115 308.929 236.571V236.571Z" fill="#6C63FF"/>
<path d="M322.352 220.399H313.531C313.196 220.398 312.874 220.227 312.637 219.923C312.4 219.619 312.267 219.207 312.266 218.776V218.143C312.267 217.713 312.4 217.3 312.637 216.996C312.874 216.692 313.196 216.521 313.531 216.52H322.352C322.687 216.521 323.008 216.692 323.245 216.996C323.482 217.3 323.616 217.713 323.616 218.143V218.776C323.616 219.207 323.482 219.619 323.245 219.923C323.008 220.227 322.687 220.398 322.352 220.399Z" fill="white"/>
<path d="M322.352 227.075H313.531C313.196 227.074 312.874 226.903 312.637 226.599C312.4 226.295 312.267 225.883 312.266 225.453V224.819C312.267 224.388 312.4 223.976 312.637 223.672C312.874 223.368 313.196 223.197 313.531 223.196H322.352C322.687 223.197 323.008 223.368 323.245 223.672C323.482 223.976 323.616 224.388 323.616 224.819V225.453C323.616 225.883 323.482 226.295 323.245 226.599C323.008 226.903 322.687 227.074 322.352 227.075Z" fill="white"/>
<path d="M313.349 209.638C313.6 208.852 313.713 208.005 313.681 207.156C313.648 206.308 313.471 205.479 313.162 204.728C312.853 203.977 312.419 203.322 311.892 202.809C311.364 202.296 310.755 201.938 310.107 201.76L288.973 156.319L281.491 164.535L304.618 206.618C304.457 208.033 304.706 209.475 305.318 210.67C305.93 211.865 306.862 212.731 307.938 213.103C309.015 213.475 310.16 213.328 311.157 212.69C312.154 212.051 312.935 210.965 313.349 209.638L313.349 209.638Z" fill="#A0616A"/>
<path d="M293.172 163.686L284.256 170.188C284.002 170.373 283.721 170.485 283.43 170.518C283.139 170.551 282.846 170.503 282.572 170.377C282.297 170.251 282.046 170.051 281.837 169.79C281.628 169.529 281.465 169.214 281.359 168.865L277.664 156.634C276.934 154.964 276.749 152.99 277.152 151.146C277.554 149.302 278.51 147.737 279.81 146.796C281.11 145.854 282.648 145.612 284.087 146.123C285.526 146.634 286.748 147.856 287.485 149.521L293.768 159.816C293.947 160.111 294.076 160.452 294.143 160.816C294.211 161.18 294.217 161.559 294.16 161.926C294.104 162.293 293.986 162.641 293.816 162.944C293.645 163.248 293.425 163.501 293.172 163.686V163.686Z" fill="#2F2E41"/>
<path d="M388.039 179.648H216.887C216.16 179.648 215.463 180.018 214.949 180.677C214.435 181.336 214.147 182.231 214.147 183.163C214.147 184.095 214.435 184.989 214.949 185.649C215.463 186.308 216.16 186.678 216.887 186.678H221.735V263.202C221.735 264.135 222.023 265.029 222.537 265.688C223.051 266.347 223.748 266.718 224.475 266.718C225.202 266.718 225.899 266.347 226.412 265.688C226.926 265.029 227.215 264.135 227.215 263.202V193.433L257.934 264.862C258.298 265.667 258.897 266.254 259.598 266.494C260.299 266.734 261.046 266.608 261.675 266.142C262.303 265.677 262.762 264.91 262.951 264.011C263.139 263.112 263.042 262.154 262.68 261.346L230.568 186.678H377.289V186.724L345.197 261.346C344.833 262.154 344.735 263.113 344.923 264.014C345.111 264.914 345.57 265.682 346.2 266.148C346.829 266.614 347.577 266.741 348.279 266.499C348.981 266.258 349.579 265.669 349.942 264.862L377.289 201.274V263.202C377.289 264.135 377.578 265.029 378.092 265.688C378.606 266.347 379.303 266.718 380.029 266.718C380.756 266.718 381.453 266.347 381.967 265.688C382.481 265.029 382.77 264.135 382.77 263.202V188.532L383.567 186.678H388.039C388.766 186.678 389.463 186.308 389.977 185.649C390.491 184.989 390.779 184.095 390.779 183.163C390.779 182.231 390.491 181.336 389.977 180.677C389.463 180.018 388.766 179.648 388.039 179.648V179.648Z" fill="#3F3D56"/>
<path d="M317.217 177.484H283.914C283.1 177.484 282.439 178.332 282.439 179.377C282.439 180.423 283.1 181.27 283.914 181.27H317.217C318.032 181.27 318.693 180.423 318.693 179.377C318.693 178.332 318.032 177.484 317.217 177.484Z" fill="#E6E6E6"/>
<path d="M339.56 181.27H302.041C301.315 181.269 300.618 180.898 300.105 180.239C299.591 179.58 299.302 178.687 299.301 177.755V151.255C299.302 150.323 299.591 149.43 300.105 148.771C300.618 148.112 301.315 147.741 302.041 147.74H339.56C340.286 147.741 340.983 148.112 341.497 148.771C342.01 149.43 342.299 150.323 342.3 151.255V177.755C342.299 178.687 342.01 179.58 341.497 180.239C340.983 180.898 340.286 181.269 339.56 181.27V181.27Z" fill="#E6E6E6"/>
<path d="M320.801 167.75C322.198 167.75 323.33 166.297 323.33 164.505C323.33 162.713 322.198 161.26 320.801 161.26C319.404 161.26 318.271 162.713 318.271 164.505C318.271 166.297 319.404 167.75 320.801 167.75Z" fill="white"/>
<path d="M368.193 115.979V21.0676C368.193 19.9892 368.528 18.9553 369.122 18.1927C369.717 17.4302 370.523 17.0012 371.363 17H429.845C430.686 17.0012 431.492 17.4302 432.086 18.1927C432.681 18.9553 433.015 19.9892 433.016 21.0676V115.979C433.015 117.058 432.681 118.092 432.086 118.854C431.492 119.617 430.686 120.046 429.845 120.047H371.363C370.523 120.046 369.717 119.617 369.122 118.854C368.528 118.092 368.193 117.058 368.193 115.979V115.979ZM371.363 17.9039C370.709 17.9049 370.083 18.2385 369.62 18.8316C369.158 19.4247 368.898 20.2289 368.897 21.0676V115.979C368.898 116.818 369.158 117.622 369.62 118.215C370.083 118.809 370.709 119.142 371.363 119.143H429.845C430.499 119.142 431.126 118.809 431.588 118.215C432.051 117.622 432.311 116.818 432.311 115.979V21.0676C432.311 20.2289 432.051 19.4247 431.588 18.8316C431.126 18.2385 430.499 17.9049 429.845 17.9039H371.363Z" fill="#E6E6E6"/>
<path d="M403.884 60.5878V41.0995C403.884 40.5603 404.051 40.0433 404.349 39.662C404.646 39.2807 405.049 39.0663 405.469 39.0657H418.342C418.762 39.0663 419.165 39.2807 419.463 39.662C419.76 40.0433 419.927 40.5603 419.927 41.0995V60.5878C419.927 61.1271 419.76 61.644 419.463 62.0253C419.165 62.4066 418.762 62.6211 418.342 62.6217H405.469C405.049 62.6211 404.646 62.4066 404.349 62.0253C404.051 61.644 403.884 61.1271 403.884 60.5878V60.5878Z" fill="#FF63EF"/>
<path d="M378.87 69.6271V50.1387C378.871 49.5995 379.038 49.0825 379.335 48.7012C379.632 48.3199 380.035 48.1055 380.456 48.1049H393.329C393.749 48.1055 394.152 48.3199 394.449 48.7012C394.746 49.0825 394.914 49.5995 394.914 50.1387V69.6271C394.914 70.1663 394.746 70.6832 394.449 71.0645C394.152 71.4458 393.749 71.6603 393.329 71.6609H380.456C380.035 71.6603 379.632 71.4458 379.335 71.0645C379.038 70.6832 378.871 70.1663 378.87 69.6271V69.6271Z" fill="#E6E6E6"/>
<path d="M398.951 97.1966V77.7083C398.952 77.169 399.119 76.6521 399.416 76.2708C399.714 75.8895 400.117 75.675 400.537 75.6744H413.41C413.83 75.675 414.233 75.8895 414.53 76.2708C414.828 76.6521 414.995 77.169 414.995 77.7083V97.1966C414.995 97.7358 414.828 98.2528 414.53 98.6341C414.233 99.0154 413.83 99.2299 413.41 99.2304H400.537C400.117 99.2299 399.714 99.0154 399.416 98.6341C399.119 98.2528 398.952 97.7359 398.951 97.1966Z" fill="#FF6584"/>
<path d="M497.127 26.8898C498.633 26.8898 499.853 25.324 499.853 23.3925C499.853 21.461 498.633 19.8951 497.127 19.8951C495.621 19.8951 494.401 21.461 494.401 23.3925C494.401 25.324 495.621 26.8898 497.127 26.8898Z" fill="#6C63FF"/>
<path d="M497.127 40.8282C498.633 40.8282 499.853 39.2624 499.853 37.3309C499.853 35.3994 498.633 33.8335 497.127 33.8335C495.621 33.8335 494.401 35.3994 494.401 37.3309C494.401 39.2624 495.621 40.8282 497.127 40.8282Z" fill="#6C63FF"/>
<path d="M497.127 54.7666C498.633 54.7666 499.853 53.2008 499.853 51.2693C499.853 49.3378 498.633 47.7719 497.127 47.7719C495.621 47.7719 494.401 49.3378 494.401 51.2693C494.401 53.2008 495.621 54.7666 497.127 54.7666Z" fill="#6C63FF"/>
<path d="M497.127 68.705C498.633 68.705 499.853 67.1392 499.853 65.2077C499.853 63.2762 498.633 61.7103 497.127 61.7103C495.621 61.7103 494.401 63.2762 494.401 65.2077C494.401 67.1392 495.621 68.705 497.127 68.705Z" fill="#6C63FF"/>
<path d="M485.745 26.8898C487.251 26.8898 488.471 25.324 488.471 23.3925C488.471 21.461 487.251 19.8951 485.745 19.8951C484.239 19.8951 483.019 21.461 483.019 23.3925C483.019 25.324 484.239 26.8898 485.745 26.8898Z" fill="#6C63FF"/>
<path d="M485.745 40.8282C487.251 40.8282 488.471 39.2624 488.471 37.3309C488.471 35.3994 487.251 33.8335 485.745 33.8335C484.239 33.8335 483.019 35.3994 483.019 37.3309C483.019 39.2624 484.239 40.8282 485.745 40.8282Z" fill="#6C63FF"/>
<path d="M485.745 54.7666C487.251 54.7666 488.471 53.2008 488.471 51.2693C488.471 49.3378 487.251 47.7719 485.745 47.7719C484.239 47.7719 483.019 49.3378 483.019 51.2693C483.019 53.2008 484.239 54.7666 485.745 54.7666Z" fill="#6C63FF"/>
<path d="M485.745 68.705C487.251 68.705 488.471 67.1392 488.471 65.2077C488.471 63.2762 487.251 61.7103 485.745 61.7103C484.239 61.7103 483.019 63.2762 483.019 65.2077C483.019 67.1392 484.239 68.705 485.745 68.705Z" fill="#6C63FF"/>
<path d="M474.363 26.8898C475.869 26.8898 477.089 25.324 477.089 23.3925C477.089 21.461 475.869 19.8951 474.363 19.8951C472.857 19.8951 471.637 21.461 471.637 23.3925C471.637 25.324 472.857 26.8898 474.363 26.8898Z" fill="#6C63FF"/>
<path d="M474.363 40.8282C475.869 40.8282 477.089 39.2624 477.089 37.3309C477.089 35.3994 475.869 33.8335 474.363 33.8335C472.857 33.8335 471.637 35.3994 471.637 37.3309C471.637 39.2624 472.857 40.8282 474.363 40.8282Z" fill="#6C63FF"/>
<path d="M474.363 54.7666C475.869 54.7666 477.089 53.2008 477.089 51.2693C477.089 49.3378 475.869 47.7719 474.363 47.7719C472.857 47.7719 471.637 49.3378 471.637 51.2693C471.637 53.2008 472.857 54.7666 474.363 54.7666Z" fill="#6C63FF"/>
<path d="M474.363 68.705C475.869 68.705 477.089 67.1392 477.089 65.2077C477.089 63.2762 475.869 61.7103 474.363 61.7103C472.857 61.7103 471.637 63.2762 471.637 65.2077C471.637 67.1392 472.857 68.705 474.363 68.705Z" fill="#6C63FF"/>
<path d="M462.981 26.8898C464.487 26.8898 465.707 25.324 465.707 23.3925C465.707 21.461 464.487 19.8951 462.981 19.8951C461.475 19.8951 460.255 21.461 460.255 23.3925C460.255 25.324 461.475 26.8898 462.981 26.8898Z" fill="#6C63FF"/>
<path d="M462.981 40.8282C464.487 40.8282 465.707 39.2624 465.707 37.3309C465.707 35.3994 464.487 33.8335 462.981 33.8335C461.475 33.8335 460.255 35.3994 460.255 37.3309C460.255 39.2624 461.475 40.8282 462.981 40.8282Z" fill="#6C63FF"/>
<path d="M462.981 54.7666C464.487 54.7666 465.707 53.2008 465.707 51.2693C465.707 49.3378 464.487 47.7719 462.981 47.7719C461.475 47.7719 460.255 49.3378 460.255 51.2693C460.255 53.2008 461.475 54.7666 462.981 54.7666Z" fill="#6C63FF"/>
<path d="M462.981 68.705C464.487 68.705 465.707 67.1392 465.707 65.2077C465.707 63.2762 464.487 61.7103 462.981 61.7103C461.475 61.7103 460.255 63.2762 460.255 65.2077C460.255 67.1392 461.475 68.705 462.981 68.705Z" fill="#6C63FF"/>
<path d="M451.599 26.8898C453.105 26.8898 454.325 25.324 454.325 23.3925C454.325 21.461 453.105 19.8951 451.599 19.8951C450.093 19.8951 448.873 21.461 448.873 23.3925C448.873 25.324 450.093 26.8898 451.599 26.8898Z" fill="#6C63FF"/>
<path d="M451.599 40.8282C453.105 40.8282 454.325 39.2624 454.325 37.3309C454.325 35.3994 453.105 33.8335 451.599 33.8335C450.093 33.8335 448.873 35.3994 448.873 37.3309C448.873 39.2624 450.093 40.8282 451.599 40.8282Z" fill="#6C63FF"/>
<path d="M451.599 54.7666C453.105 54.7666 454.325 53.2008 454.325 51.2693C454.325 49.3378 453.105 47.7719 451.599 47.7719C450.093 47.7719 448.873 49.3378 448.873 51.2693C448.873 53.2008 450.093 54.7666 451.599 54.7666Z" fill="#6C63FF"/>
<path d="M451.599 68.705C453.105 68.705 454.325 67.1392 454.325 65.2077C454.325 63.2762 453.105 61.7103 451.599 61.7103C450.093 61.7103 448.873 63.2762 448.873 65.2077C448.873 67.1392 450.093 68.705 451.599 68.705Z" fill="#6C63FF"/>
<path d="M440.217 26.8898C441.722 26.8898 442.943 25.324 442.943 23.3925C442.943 21.461 441.722 19.8951 440.217 19.8951C438.711 19.8951 437.491 21.461 437.491 23.3925C437.491 25.324 438.711 26.8898 440.217 26.8898Z" fill="#6C63FF"/>
<path d="M440.217 40.8282C441.722 40.8282 442.943 39.2624 442.943 37.3309C442.943 35.3994 441.722 33.8335 440.217 33.8335C438.711 33.8335 437.491 35.3994 437.491 37.3309C437.491 39.2624 438.711 40.8282 440.217 40.8282Z" fill="#6C63FF"/>
<path d="M440.217 54.7666C441.722 54.7666 442.943 53.2008 442.943 51.2693C442.943 49.3378 441.722 47.7719 440.217 47.7719C438.711 47.7719 437.491 49.3378 437.491 51.2693C437.491 53.2008 438.711 54.7666 440.217 54.7666Z" fill="#6C63FF"/>
<path d="M440.217 68.705C441.722 68.705 442.943 67.1392 442.943 65.2077C442.943 63.2762 441.722 61.7103 440.217 61.7103C438.711 61.7103 437.491 63.2762 437.491 65.2077C437.491 67.1392 438.711 68.705 440.217 68.705Z" fill="#6C63FF"/>
<path d="M451.2 147.471C450.976 146.683 450.885 145.844 450.932 145.008C450.979 144.172 451.163 143.358 451.472 142.619C451.781 141.881 452.208 141.234 452.726 140.723C453.243 140.211 453.839 139.845 454.474 139.649C454.676 139.588 454.88 139.546 455.086 139.521L465.331 116.483L462.744 110.782L469.184 104.409L474.11 113.187C474.698 114.242 475.005 115.513 474.985 116.809C474.965 118.106 474.62 119.36 474.001 120.385L459.936 143.485C459.987 143.668 460.03 143.855 460.066 144.044C460.219 144.859 460.236 145.707 460.115 146.531C459.995 147.355 459.74 148.137 459.367 148.825C458.995 149.514 458.513 150.094 457.953 150.527C457.394 150.961 456.769 151.237 456.121 151.339C455.932 151.37 455.743 151.385 455.553 151.385C454.603 151.381 453.676 151.004 452.898 150.304C452.12 149.605 451.527 148.616 451.2 147.471V147.471Z" fill="#FFB8B8"/>
<path d="M431.212 260.844L426.044 260.843L423.585 235.269L431.213 235.27L431.212 260.844Z" fill="#FFB8B8"/>
<path d="M422.352 258.949H432.319V267H416.076C416.076 265.942 416.239 264.895 416.554 263.919C416.87 262.942 417.332 262.054 417.915 261.307C418.497 260.559 419.189 259.966 419.951 259.561C420.712 259.157 421.528 258.949 422.352 258.949V258.949Z" fill="#2F2E41"/>
<path d="M473.789 260.844L468.621 260.843L466.162 235.269L473.79 235.27L473.789 260.844Z" fill="#FFB8B8"/>
<path d="M464.929 258.949H474.897V267H458.654C458.654 265.942 458.816 264.895 459.131 263.919C459.447 262.942 459.909 262.054 460.492 261.307C461.075 260.559 461.766 259.966 462.528 259.561C463.289 259.157 464.105 258.949 464.929 258.949V258.949Z" fill="#2F2E41"/>
<path d="M470.617 105.654L459.014 111.311L456.181 101.216C455.805 99.875 455.81 98.4071 456.196 97.0712C456.582 95.7352 457.323 94.6173 458.29 93.9149V93.9149C459.267 93.2043 460.41 92.9656 461.513 93.2417C462.616 93.5179 463.605 94.2908 464.302 95.4207L470.617 105.654Z" fill="#6C63FF"/>
<path d="M431.658 240.131L421.927 237.283C421.409 237.131 420.956 236.733 420.658 236.169C420.36 235.605 420.239 234.918 420.32 234.245C424.224 202.494 427.981 183.9 437.663 160.288C437.798 159.848 439.31 150.911 440.296 144.991C440.285 144.339 440.459 143.703 440.786 143.204C441.112 142.704 441.57 142.373 442.072 142.274L460.218 138.691C460.492 138.57 460.781 138.514 461.07 138.527L461.252 138.571L461.249 138.8C461.247 139.037 461.064 139.073 460.995 139.086L460.753 139.134C461.028 139.298 461.281 139.519 461.502 139.787C469.452 152.054 473.586 192.266 478.837 236.691C478.866 237.052 478.832 237.416 478.737 237.757C478.642 238.099 478.488 238.408 478.288 238.663C478.098 238.93 477.868 239.144 477.611 239.292C477.355 239.441 477.078 239.522 476.796 239.529L465.203 239.892C464.694 239.906 464.198 239.683 463.807 239.263C463.417 238.844 463.158 238.256 463.08 237.61L455.271 179.718C455.218 179.265 455.053 178.847 454.801 178.523C454.549 178.199 454.223 177.987 453.871 177.918C453.518 177.848 453.158 177.924 452.841 178.136C452.525 178.347 452.27 178.682 452.112 179.092C445.812 195.552 439.937 209.786 434.151 238.184C434.036 238.76 433.775 239.271 433.41 239.636C433.044 240 432.594 240.199 432.131 240.2C431.972 240.199 431.813 240.176 431.658 240.131V240.131Z" fill="#2F2E41"/>
<path d="M441.104 145.652C440.86 145.431 440.655 145.145 440.504 144.814C440.352 144.483 440.258 144.115 440.226 143.733C438.74 125.935 439.775 112.007 443.39 101.153C444.027 99.2804 444.986 97.6178 446.195 96.2896C447.405 94.9614 448.834 94.0022 450.374 93.4841L459.753 92.8767L459.802 92.9068C461.918 94.2368 463.644 96.4064 464.724 99.0939C465.804 101.781 466.18 104.844 465.796 107.827C462.779 118.028 460.253 128.65 462.18 137.218C462.26 137.576 462.284 137.951 462.249 138.322C462.214 138.692 462.121 139.049 461.976 139.372C461.835 139.684 461.646 139.956 461.42 140.171C461.194 140.386 460.936 140.539 460.662 140.621L442.797 146.073C442.508 146.161 442.207 146.169 441.915 146.097C441.623 146.024 441.347 145.873 441.104 145.652V145.652Z" fill="#6C63FF"/>
<path d="M437.066 120.111L419.077 101.904C418.934 101.969 418.788 102.024 418.64 102.07C418.005 102.26 417.346 102.277 416.706 102.12C416.065 101.962 415.458 101.633 414.923 101.155C414.384 100.676 413.932 100.055 413.595 99.3342C413.259 98.6129 413.047 97.8078 412.972 96.9727C412.852 95.6377 413.086 94.2896 413.638 93.1471C414.19 92.0046 415.026 91.1347 416.011 90.6787C416.627 90.3957 417.281 90.2825 417.933 90.3467C418.584 90.4109 419.218 90.6509 419.792 91.0511C420.366 91.4512 420.868 92.0025 421.264 92.6688C421.661 93.335 421.943 94.1012 422.093 94.9172C422.139 95.1758 422.172 95.4382 422.189 95.7025L440.098 108.956L444.554 105.665L449.491 113.956L442.572 120.283C441.762 121.018 440.789 121.398 439.797 121.367C438.805 121.336 437.848 120.896 437.066 120.111H437.066Z" fill="#FFB8B8"/>
<path d="M451.686 116.539L441.422 107.584L446.246 98.8194C446.886 97.6556 447.827 96.8197 448.902 96.4595C449.976 96.0992 451.115 96.2379 452.118 96.8509V96.8509C453.132 97.471 453.94 98.5359 454.395 99.8532C454.851 101.171 454.924 102.653 454.602 104.034L451.686 116.539Z" fill="#6C63FF"/>
<path d="M456.623 88.3825C462.341 88.3825 466.977 82.4356 466.977 75.0997C466.977 67.7638 462.341 61.8169 456.623 61.8169C450.905 61.8169 446.269 67.7638 446.269 75.0997C446.269 82.4356 450.905 88.3825 456.623 88.3825Z" fill="#FFB8B8"/>
<path d="M452.827 73.1213C450.166 75.4579 446.672 77.8598 443.954 75.3715C442.169 73.7377 441.607 70.7122 442.33 68.0572C443.632 63.2826 447.208 61.1806 450.627 59.5694C455.072 57.4748 459.912 55.8085 464.501 57.3085C469.09 58.8086 473.145 64.5083 472.317 70.4896C471.651 75.2997 468.114 79.302 468.616 84.1448C469.121 89.0186 473.394 91.584 477.166 92.4551C480.938 93.3262 485.159 93.6061 487.869 97.0818C491.327 101.516 490.464 109.441 487.21 114.122C483.956 118.804 479.046 120.926 474.288 122.368C467.983 124.28 461.165 125.284 455.178 122.112C449.19 118.94 444.531 110.401 446.265 102.394C446.998 99.0124 448.724 96.1541 450.392 93.3714C452.06 90.5887 453.749 87.6789 454.385 84.2648C454.915 81.4198 454.523 78.1165 453.052 75.9824C452.784 75.6089 452.616 75.1362 452.571 74.6323C452.526 74.1283 452.607 73.6191 452.801 73.1776L452.827 73.1213Z" fill="#2F2E41"/>
<circle cx="42" cy="38" r="21" fill="white"/>
<circle cx="480" cy="499" r="21" fill="white"/>
<path d="M59.0371 419.581C55.5967 421.019 51.9028 421.38 48.3114 420.627C44.72 419.875 41.352 418.034 38.5319 415.284C31.3499 408.112 29.0982 396.298 27.266 385.358C25.4595 374.572 23.6531 363.786 21.8467 353L33.1925 362.294C41.3517 368.978 49.6947 375.875 55.3441 385.556C60.9935 395.237 63.4595 408.453 58.9204 418.928" fill="#24843F" fill-opacity="0.95"/>
<path d="M58.4681 459.307C59.5874 449.273 60.7384 439.111 59.9532 428.969C59.2559 419.963 57.0232 411.166 52.4775 403.953C50.0647 400.132 47.1288 396.858 43.8017 394.278C42.9341 393.604 42.1356 395.296 42.9994 395.967C48.7562 400.445 53.2089 407.056 55.7154 414.849C58.4839 423.514 58.9285 432.961 58.4514 442.166C58.1629 447.733 57.5514 453.263 56.9353 458.787C56.8867 459.037 56.917 459.3 57.0201 459.523C57.1231 459.746 57.2912 459.913 57.4904 459.99C57.6936 460.057 57.9102 460.023 58.0933 459.896C58.2763 459.768 58.411 459.556 58.4681 459.307Z" fill="#B5CF18" fill-opacity="0.5"/>
<path d="M47.4234 441.644C45.9263 444.308 43.8684 446.476 41.4481 447.938C39.0278 449.401 36.3265 450.109 33.6046 449.995C26.6093 449.606 20.7775 443.889 15.5277 438.462L0 422.409L10.2768 421.833C17.6672 421.418 25.2484 421.032 32.2875 423.701C39.3267 426.369 45.8185 432.792 47.1057 441.323" fill="#24843F" fill-opacity="0.95"/>
<path d="M61.1714 464.504C55.7152 452.758 49.3865 439.704 38.0782 435.531C34.9339 434.375 31.6369 433.961 28.3648 434.311C27.3335 434.419 27.5911 436.353 28.6205 436.245C34.1053 435.691 39.5795 437.453 44.1215 441.235C48.4922 444.854 51.8952 449.887 54.7756 455.223C56.5399 458.492 58.1202 461.899 59.7008 465.302C60.206 466.39 61.6824 465.605 61.1714 464.504Z" fill="#B5CF18" fill-opacity="0.5"/>
<path d="M70.7553 476.708C70.5678 474.103 69.7879 471.61 68.5005 469.5C67.213 467.389 65.4675 465.743 63.4539 464.741V457.915H53.9077V464.956C51.9932 466.008 50.3455 467.65 49.1327 469.714C47.9199 471.779 47.1853 474.192 47.0038 476.708L44.7591 508H73L70.7553 476.708Z" fill="#E6E6E6"/>
<g clip-path="url(#clip0)">
<path d="M320.542 507.891H4.45809C4.3366 507.891 4.22008 507.833 4.13417 507.73C4.04826 507.627 4 507.487 4 507.341C4 507.195 4.04826 507.055 4.13417 506.952C4.22008 506.849 4.3366 506.791 4.45809 506.791H320.542C320.663 506.791 320.78 506.849 320.866 506.952C320.952 507.055 321 507.195 321 507.341C321 507.487 320.952 507.627 320.866 507.73C320.78 507.833 320.663 507.891 320.542 507.891Z" fill="#E6E6E6"/>
<path d="M289.256 411.946H103.271C102.481 411.946 101.724 412.323 101.165 412.994C100.607 413.664 100.293 414.574 100.293 415.522C100.293 416.471 100.607 417.38 101.165 418.051C101.724 418.721 102.481 419.098 103.271 419.098H108.539V504.644C108.539 505.593 108.852 506.502 109.411 507.173C109.969 507.843 110.727 508.22 111.516 508.22C112.306 508.22 113.063 507.843 113.622 507.173C114.18 506.502 114.494 505.593 114.494 504.644L114.539 419.098H277.575V504.644C277.575 505.593 277.889 506.502 278.447 507.173C279.005 507.843 279.763 508.22 280.553 508.22C281.342 508.22 282.1 507.843 282.658 507.173C283.216 506.502 283.53 505.593 283.53 504.644V420.984L284.396 419.098H289.256C290.046 419.098 290.803 418.721 291.362 418.051C291.92 417.38 292.234 416.471 292.234 415.522C292.234 414.574 291.92 413.664 291.362 412.994C290.803 412.323 290.046 411.946 289.256 411.946V411.946Z" fill="#E6E6E6"/>
<path d="M206.383 413.818H150.045C148.955 413.816 147.909 413.295 147.137 412.369C146.366 411.443 145.932 410.187 145.931 408.877V371.627C145.932 370.317 146.366 369.061 147.137 368.135C147.909 367.209 148.955 366.688 150.045 366.686H206.383C207.473 366.688 208.519 367.209 209.291 368.135C210.062 369.061 210.496 370.317 210.497 371.627V408.877C210.496 410.187 210.062 411.443 209.291 412.369C208.519 413.295 207.473 413.816 206.383 413.818V413.818Z" fill="#3F3D56"/>
<path d="M206.382 370.489H150.046C149.794 370.49 149.554 370.61 149.376 370.823C149.198 371.037 149.098 371.326 149.098 371.628V408.878C149.098 409.179 149.198 409.469 149.376 409.682C149.554 409.896 149.794 410.016 150.046 410.016H206.382C206.634 410.016 206.874 409.896 207.052 409.682C207.23 409.469 207.33 409.179 207.33 408.878V371.628C207.33 371.326 207.23 371.037 207.052 370.823C206.874 370.61 206.634 370.49 206.382 370.489V370.489Z" fill="white"/>
<path d="M183.019 396.862C183.019 396.862 176.275 394.995 172.565 398.417C168.856 401.838 177.286 409.615 177.286 409.615L183.019 396.862Z" fill="#2F2E41"/>
<path d="M178.544 393.335C182.058 393.335 184.906 389.915 184.906 385.695C184.906 381.476 182.058 378.056 178.544 378.056C175.031 378.056 172.183 381.476 172.183 385.695C172.183 389.915 175.031 393.335 178.544 393.335Z" fill="#A0616A"/>
<path d="M173.625 374.971C174.049 374.106 174.664 373.399 175.402 372.928C176.14 372.456 176.972 372.239 177.806 372.3C178.678 372.431 179.53 372.717 180.332 373.149L184.491 375.097C185.567 375.601 186.746 376.219 187.213 377.488C187.646 378.665 187.323 380.025 186.996 381.251L185.44 387.079C185.267 385.76 184.972 384.469 184.558 383.229C184.138 381.982 183.378 380.942 182.403 380.278C181.323 379.613 180.049 379.627 178.837 379.697C177.119 379.796 175.252 380.058 174.032 381.513C173.384 382.339 172.945 383.369 172.765 384.484C172.589 385.592 172.5 386.718 172.5 387.846C171.795 386.392 171.202 384.865 170.727 383.282C170.336 382.104 170.114 380.855 170.069 379.588C170.028 378.31 170.381 377.059 171.06 376.074C171.405 375.593 171.855 375.237 172.359 375.047C172.864 374.856 173.402 374.838 173.914 374.996L173.625 374.971Z" fill="#2F2E41"/>
<path d="M193.734 403.486C193.674 403.228 193.553 402.997 193.384 402.822C193.215 402.647 193.007 402.535 192.786 402.501C192.771 402.489 192.756 402.478 192.74 402.468L183.243 396.077C182.972 395.894 182.653 395.844 182.352 395.938C182.051 396.031 181.791 396.259 181.627 396.576L179.03 401.627L175.117 396.929L175.055 396.854C174.854 396.613 174.589 396.464 174.306 396.435C174.024 396.405 173.741 396.496 173.509 396.691L165.703 403.255C165.69 403.255 165.676 403.261 165.662 403.261C165.289 403.335 164.948 403.561 164.695 403.9C164.443 404.239 164.294 404.671 164.274 405.126L164.073 410.016H195.241L193.734 403.486Z" fill="#6C63FF"/>
<path d="M211.13 409.257H205.117C205.117 409.055 205.05 408.862 204.931 408.719C204.812 408.577 204.651 408.496 204.484 408.496H202.585C202.417 408.496 202.256 408.577 202.137 408.719C202.018 408.862 201.952 409.055 201.952 409.257H200.053C200.053 409.055 199.986 408.862 199.867 408.719C199.748 408.577 199.587 408.496 199.42 408.496H197.521C197.353 408.496 197.192 408.577 197.073 408.719C196.954 408.862 196.888 409.055 196.888 409.257H194.989C194.989 409.055 194.922 408.862 194.803 408.719C194.684 408.577 194.523 408.496 194.356 408.496H192.457C192.289 408.496 192.128 408.577 192.009 408.719C191.89 408.862 191.824 409.055 191.824 409.257H189.925C189.925 409.055 189.858 408.862 189.739 408.719C189.62 408.577 189.459 408.496 189.292 408.496H187.393C187.225 408.496 187.064 408.577 186.945 408.719C186.826 408.862 186.76 409.055 186.76 409.257H184.861C184.861 409.055 184.794 408.862 184.675 408.719C184.556 408.577 184.395 408.496 184.228 408.496H182.329C182.161 408.496 182 408.577 181.881 408.719C181.762 408.862 181.696 409.055 181.696 409.257H179.797C179.797 409.055 179.73 408.862 179.611 408.719C179.492 408.577 179.331 408.496 179.164 408.496H177.265C177.097 408.496 176.936 408.577 176.817 408.719C176.698 408.862 176.631 409.055 176.631 409.257H174.732C174.732 409.055 174.666 408.862 174.547 408.719C174.428 408.577 174.267 408.496 174.1 408.496H172.201C172.033 408.496 171.872 408.577 171.753 408.719C171.634 408.862 171.568 409.055 171.568 409.257H169.669C169.669 409.055 169.602 408.862 169.483 408.719C169.364 408.577 169.203 408.496 169.036 408.496H167.137C166.969 408.496 166.808 408.577 166.689 408.719C166.57 408.862 166.503 409.055 166.503 409.257H164.604C164.604 409.055 164.538 408.862 164.419 408.719C164.3 408.577 164.139 408.496 163.971 408.496H162.072C161.905 408.496 161.744 408.577 161.625 408.719C161.506 408.862 161.44 409.055 161.44 409.257H159.54C159.54 409.055 159.474 408.862 159.355 408.719C159.236 408.577 159.075 408.496 158.908 408.496H157.009C156.841 408.496 156.68 408.577 156.561 408.719C156.442 408.862 156.375 409.055 156.375 409.257H154.476C154.476 409.055 154.41 408.862 154.291 408.719C154.172 408.577 154.011 408.496 153.844 408.496H151.944C151.777 408.496 151.616 408.577 151.497 408.719C151.378 408.862 151.311 409.055 151.311 409.257H145.298C144.795 409.258 144.313 409.498 143.957 409.926C143.602 410.353 143.402 410.933 143.402 411.537C143.402 412.141 143.602 412.721 143.957 413.149C144.313 413.576 144.795 413.817 145.298 413.818H211.13C211.634 413.818 212.117 413.578 212.473 413.15C212.829 412.722 213.029 412.142 213.029 411.537C213.029 410.932 212.829 410.352 212.473 409.925C212.117 409.497 211.634 409.257 211.13 409.257V409.257Z" fill="#3F3D56"/>
<path d="M135.509 396.013V411.156H103.918C103.071 411.191 102.228 411.021 101.437 410.657C100.646 410.292 99.9249 409.74 99.3157 409.034C98.7066 408.327 98.2221 407.48 97.8912 406.544C97.5603 405.608 97.3898 404.601 97.3898 403.584C97.3898 402.567 97.5603 401.56 97.8912 400.624C98.2221 399.688 98.7066 398.841 99.3157 398.135C99.9249 397.428 100.646 396.876 101.437 396.512C102.228 396.147 103.071 395.977 103.918 396.013H135.509Z" fill="#6C63FF"/>
<path d="M136.285 411.039C136.285 411.194 136.234 411.342 136.143 411.451C136.052 411.56 135.928 411.622 135.8 411.622H103.355C101.593 411.622 99.9029 410.781 98.6569 409.285C97.4109 407.788 96.7108 405.759 96.7108 403.642C96.7108 401.526 97.4109 399.497 98.6569 398C99.9029 396.504 101.593 395.663 103.355 395.663H135.8C135.928 395.663 136.052 395.725 136.143 395.834C136.234 395.943 136.285 396.091 136.285 396.246C136.285 396.4 136.234 396.548 136.143 396.658C136.052 396.767 135.928 396.828 135.8 396.828H103.355C101.851 396.83 100.409 397.548 99.346 398.826C98.283 400.104 97.6859 401.836 97.6859 403.642C97.6859 405.449 98.283 407.181 99.346 408.459C100.409 409.736 101.851 410.455 103.355 410.457H135.8C135.928 410.457 136.052 410.518 136.143 410.627C136.234 410.737 136.285 410.885 136.285 411.039V411.039Z" fill="#6C63FF"/>
<path d="M135.509 399.507H101.561C101.548 399.507 101.535 399.504 101.523 399.499C101.511 399.493 101.501 399.484 101.492 399.473C101.482 399.463 101.475 399.45 101.47 399.436C101.465 399.421 101.463 399.406 101.463 399.391C101.463 399.375 101.465 399.36 101.47 399.346C101.475 399.332 101.482 399.319 101.492 399.308C101.501 399.297 101.511 399.289 101.523 399.283C101.535 399.277 101.548 399.274 101.561 399.274H135.509C135.534 399.274 135.559 399.287 135.577 399.309C135.595 399.33 135.605 399.36 135.605 399.391C135.605 399.422 135.595 399.451 135.577 399.473C135.559 399.495 135.534 399.507 135.509 399.507V399.507Z" fill="#E6E6E6"/>
<path d="M135.509 402.303H101.561C101.548 402.303 101.535 402.3 101.523 402.294C101.511 402.288 101.501 402.28 101.492 402.269C101.482 402.258 101.475 402.245 101.47 402.231C101.465 402.217 101.463 402.202 101.463 402.186C101.463 402.171 101.465 402.156 101.47 402.142C101.475 402.127 101.482 402.115 101.492 402.104C101.501 402.093 101.511 402.084 101.523 402.079C101.535 402.073 101.548 402.07 101.561 402.07H135.509C135.534 402.07 135.559 402.082 135.577 402.104C135.595 402.126 135.605 402.156 135.605 402.186C135.605 402.217 135.595 402.247 135.577 402.268C135.559 402.29 135.534 402.303 135.509 402.303V402.303Z" fill="#E6E6E6"/>
<path d="M135.509 405.099H101.561C101.548 405.099 101.535 405.096 101.523 405.09C101.511 405.084 101.501 405.076 101.492 405.065C101.482 405.054 101.475 405.041 101.47 405.027C101.465 405.013 101.463 404.997 101.463 404.982C101.463 404.967 101.465 404.951 101.47 404.937C101.475 404.923 101.482 404.91 101.492 404.899C101.501 404.889 101.511 404.88 101.523 404.874C101.535 404.868 101.548 404.865 101.561 404.866H135.509C135.534 404.866 135.559 404.878 135.577 404.9C135.595 404.922 135.605 404.951 135.605 404.982C135.605 405.013 135.595 405.042 135.577 405.064C135.559 405.086 135.534 405.098 135.509 405.099V405.099Z" fill="#E6E6E6"/>
<path d="M135.509 407.894H101.561C101.548 407.894 101.535 407.891 101.523 407.885C101.511 407.88 101.501 407.871 101.492 407.86C101.482 407.849 101.475 407.837 101.47 407.822C101.465 407.808 101.463 407.793 101.463 407.778C101.463 407.762 101.465 407.747 101.47 407.733C101.475 407.719 101.482 407.706 101.492 407.695C101.501 407.684 101.511 407.676 101.523 407.67C101.535 407.664 101.548 407.661 101.561 407.661H135.509C135.534 407.661 135.559 407.674 135.577 407.695C135.595 407.717 135.605 407.747 135.605 407.778C135.605 407.808 135.595 407.838 135.577 407.86C135.559 407.881 135.534 407.894 135.509 407.894Z" fill="#E6E6E6"/>
<path d="M129.554 380.059V395.202H97.9625C97.1161 395.237 96.2724 395.067 95.4818 394.703C94.6912 394.338 93.9697 393.786 93.3606 393.08C92.7514 392.373 92.2669 391.527 91.936 390.59C91.6051 389.654 91.4346 388.647 91.4346 387.63C91.4346 386.613 91.6051 385.607 91.936 384.67C92.2669 383.734 92.7514 382.887 93.3606 382.181C93.9697 381.474 94.6912 380.922 95.4818 380.558C96.2724 380.193 97.1161 380.023 97.9625 380.059H129.554Z" fill="#6C63FF"/>
<path d="M130.33 395.085C130.329 395.24 130.278 395.388 130.187 395.497C130.097 395.606 129.973 395.668 129.845 395.668H97.3998C96.5273 395.668 95.6633 395.461 94.8572 395.06C94.0511 394.659 93.3186 394.072 92.7017 393.331C92.0847 392.59 91.5953 391.71 91.2614 390.742C90.9275 389.774 90.7556 388.736 90.7556 387.689C90.7556 386.641 90.9275 385.603 91.2614 384.635C91.5953 383.667 92.0847 382.787 92.7017 382.046C93.3186 381.305 94.0511 380.718 94.8572 380.317C95.6633 379.916 96.5273 379.709 97.3998 379.709H129.845C129.973 379.709 130.097 379.771 130.187 379.88C130.278 379.989 130.33 380.137 130.33 380.292C130.33 380.446 130.278 380.594 130.187 380.704C130.097 380.813 129.973 380.874 129.845 380.874H97.3998C95.8958 380.876 94.4538 381.594 93.3908 382.872C92.3278 384.15 91.7307 385.882 91.7307 387.689C91.7307 389.495 92.3278 391.227 93.3908 392.505C94.4538 393.783 95.8958 394.501 97.3998 394.503H129.845C129.973 394.503 130.096 394.564 130.187 394.673C130.278 394.783 130.329 394.931 130.33 395.085V395.085Z" fill="#3F3D56"/>
<path d="M129.554 383.553H95.6054C95.5926 383.553 95.5799 383.551 95.568 383.545C95.5562 383.539 95.5454 383.53 95.5363 383.52C95.5273 383.509 95.5201 383.496 95.5151 383.482C95.5102 383.467 95.5077 383.452 95.5077 383.437C95.5077 383.421 95.5102 383.406 95.5151 383.392C95.5201 383.378 95.5273 383.365 95.5363 383.354C95.5454 383.343 95.5562 383.335 95.568 383.329C95.5799 383.323 95.5926 383.32 95.6054 383.32H129.554C129.579 383.321 129.604 383.333 129.622 383.355C129.64 383.377 129.65 383.406 129.65 383.437C129.65 383.468 129.64 383.497 129.622 383.519C129.604 383.541 129.579 383.553 129.554 383.553V383.553Z" fill="#E6E6E6"/>
<path d="M129.554 386.349H95.6054C95.5926 386.349 95.5799 386.346 95.568 386.34C95.5562 386.335 95.5454 386.326 95.5363 386.315C95.5273 386.304 95.5201 386.291 95.5151 386.277C95.5102 386.263 95.5077 386.248 95.5077 386.232C95.5077 386.217 95.5102 386.202 95.5151 386.188C95.5201 386.174 95.5273 386.161 95.5363 386.15C95.5454 386.139 95.5562 386.13 95.568 386.125C95.5799 386.119 95.5926 386.116 95.6054 386.116H129.554C129.579 386.116 129.604 386.129 129.622 386.15C129.64 386.172 129.65 386.202 129.65 386.232C129.65 386.263 129.64 386.293 129.622 386.315C129.604 386.336 129.579 386.349 129.554 386.349V386.349Z" fill="#E6E6E6"/>
<path d="M129.554 389.145H95.6054C95.5926 389.145 95.5799 389.142 95.568 389.136C95.5562 389.13 95.5454 389.122 95.5363 389.111C95.5273 389.1 95.5201 389.087 95.5151 389.073C95.5102 389.059 95.5077 389.043 95.5077 389.028C95.5077 389.013 95.5102 388.998 95.5151 388.983C95.5201 388.969 95.5273 388.956 95.5363 388.945C95.5454 388.935 95.5562 388.926 95.568 388.92C95.5799 388.914 95.5926 388.911 95.6054 388.912H129.554C129.579 388.912 129.604 388.924 129.622 388.946C129.64 388.968 129.65 388.997 129.65 389.028C129.65 389.059 129.64 389.088 129.622 389.11C129.604 389.132 129.579 389.144 129.554 389.145V389.145Z" fill="#E6E6E6"/>
<path d="M129.554 391.94H95.6054C95.5926 391.94 95.5799 391.937 95.568 391.931C95.5562 391.926 95.5454 391.917 95.5363 391.906C95.5273 391.895 95.5201 391.883 95.5151 391.868C95.5102 391.854 95.5077 391.839 95.5077 391.824C95.5077 391.808 95.5102 391.793 95.5151 391.779C95.5201 391.765 95.5273 391.752 95.5363 391.741C95.5454 391.73 95.5562 391.722 95.568 391.716C95.5799 391.71 95.5926 391.707 95.6054 391.707H129.554C129.579 391.707 129.604 391.72 129.622 391.742C129.64 391.763 129.65 391.793 129.65 391.824C129.65 391.854 129.64 391.884 129.622 391.906C129.604 391.928 129.579 391.94 129.554 391.94Z" fill="#E6E6E6"/>
<path d="M166.304 464.98V451.777C166.304 451.194 166.111 450.634 165.767 450.221C165.423 449.808 164.957 449.577 164.471 449.577H122.785C122.299 449.577 121.833 449.808 121.489 450.221C121.146 450.634 120.952 451.194 120.952 451.777V464.98H166.304Z" fill="#E6E6E6"/>
<path d="M166.304 469.932H120.952V486.986H166.304V469.932Z" fill="#E6E6E6"/>
<path d="M120.952 491.937V505.14C120.952 505.724 121.146 506.284 121.489 506.696C121.833 507.109 122.299 507.341 122.785 507.341H164.471C164.957 507.341 165.423 507.109 165.767 506.696C166.111 506.284 166.304 505.724 166.304 505.14V491.937H120.952Z" fill="#E6E6E6"/>
<path d="M143.399 459.479C144.158 459.479 144.773 458.74 144.773 457.829C144.773 456.917 144.158 456.178 143.399 456.178C142.64 456.178 142.025 456.917 142.025 457.829C142.025 458.74 142.64 459.479 143.399 459.479Z" fill="white"/>
<path d="M143.399 481.484C144.158 481.484 144.773 480.746 144.773 479.834C144.773 478.923 144.158 478.184 143.399 478.184C142.64 478.184 142.025 478.923 142.025 479.834C142.025 480.746 142.64 481.484 143.399 481.484Z" fill="white"/>
<path d="M143.473 503.024C144.232 503.024 144.847 502.285 144.847 501.374C144.847 500.462 144.232 499.723 143.473 499.723C142.714 499.723 142.098 500.462 142.098 501.374C142.098 502.285 142.714 503.024 143.473 503.024Z" fill="white"/>
<path d="M161.162 434.522V449.665H129.571C128.725 449.701 127.881 449.531 127.09 449.166C126.3 448.802 125.578 448.25 124.969 447.543C124.36 446.837 123.875 445.99 123.544 445.054C123.214 444.117 123.043 443.111 123.043 442.094C123.043 441.077 123.214 440.07 123.544 439.134C123.875 438.198 124.36 437.351 124.969 436.644C125.578 435.938 126.3 435.386 127.09 435.021C127.881 434.657 128.725 434.487 129.571 434.522H161.162Z" fill="#6C63FF"/>
<path d="M161.938 449.549C161.938 449.703 161.887 449.851 161.796 449.96C161.705 450.07 161.582 450.131 161.453 450.131H129.008C128.135 450.132 127.271 449.926 126.464 449.526C125.657 449.125 124.924 448.537 124.306 447.796C123.689 447.055 123.199 446.175 122.865 445.207C122.531 444.238 122.359 443.2 122.359 442.152C122.359 441.104 122.531 440.065 122.865 439.097C123.199 438.128 123.689 437.249 124.306 436.508C124.924 435.767 125.657 435.179 126.464 434.778C127.271 434.378 128.135 434.172 129.008 434.173H161.453C161.582 434.173 161.705 434.234 161.796 434.343C161.887 434.453 161.938 434.601 161.938 434.755C161.938 434.91 161.887 435.058 161.796 435.167C161.705 435.276 161.582 435.338 161.453 435.338H129.008C127.504 435.339 126.062 436.058 124.999 437.336C123.936 438.613 123.339 440.346 123.339 442.152C123.339 443.958 123.936 445.69 124.999 446.968C126.062 448.246 127.504 448.965 129.008 448.966H161.453C161.582 448.966 161.705 449.028 161.796 449.137C161.887 449.246 161.938 449.394 161.938 449.549V449.549Z" fill="#3F3D56"/>
<path d="M161.162 438.017H127.214C127.201 438.017 127.188 438.014 127.176 438.008C127.165 438.002 127.154 437.994 127.145 437.983C127.136 437.972 127.128 437.959 127.124 437.945C127.119 437.931 127.116 437.916 127.116 437.9C127.116 437.885 127.119 437.87 127.124 437.856C127.128 437.841 127.136 437.828 127.145 437.818C127.154 437.807 127.165 437.798 127.176 437.792C127.188 437.787 127.201 437.784 127.214 437.784H161.162C161.188 437.784 161.212 437.796 161.23 437.818C161.248 437.84 161.258 437.87 161.258 437.9C161.258 437.931 161.248 437.961 161.23 437.982C161.212 438.004 161.188 438.017 161.162 438.017V438.017Z" fill="#E6E6E6"/>
<path d="M161.162 440.812H127.214C127.201 440.812 127.188 440.81 127.176 440.804C127.165 440.798 127.154 440.789 127.145 440.779C127.136 440.768 127.128 440.755 127.124 440.741C127.119 440.726 127.116 440.711 127.116 440.696C127.116 440.681 127.119 440.665 127.124 440.651C127.128 440.637 127.136 440.624 127.145 440.613C127.154 440.602 127.165 440.594 127.176 440.588C127.188 440.582 127.201 440.579 127.214 440.579H161.162C161.188 440.58 161.212 440.592 161.23 440.614C161.248 440.636 161.258 440.665 161.258 440.696C161.258 440.727 161.248 440.756 161.23 440.778C161.212 440.8 161.188 440.812 161.162 440.812V440.812Z" fill="#E6E6E6"/>
<path d="M161.162 443.608H127.214C127.201 443.608 127.188 443.605 127.176 443.599C127.165 443.594 127.154 443.585 127.145 443.574C127.136 443.563 127.128 443.55 127.124 443.536C127.119 443.522 127.116 443.507 127.116 443.492C127.116 443.476 127.119 443.461 127.124 443.447C127.128 443.433 127.136 443.42 127.145 443.409C127.154 443.398 127.165 443.389 127.176 443.384C127.188 443.378 127.201 443.375 127.214 443.375H161.162C161.188 443.375 161.212 443.388 161.23 443.409C161.248 443.431 161.258 443.461 161.258 443.492C161.258 443.522 161.248 443.552 161.23 443.574C161.212 443.595 161.188 443.608 161.162 443.608V443.608Z" fill="#E6E6E6"/>
<path d="M161.162 446.404H127.214C127.201 446.404 127.188 446.401 127.176 446.395C127.165 446.389 127.154 446.381 127.145 446.37C127.136 446.359 127.128 446.346 127.124 446.332C127.119 446.318 127.116 446.302 127.116 446.287C127.116 446.272 127.119 446.257 127.124 446.242C127.128 446.228 127.136 446.215 127.145 446.204C127.154 446.194 127.165 446.185 127.176 446.179C127.188 446.173 127.201 446.17 127.214 446.171H161.162C161.188 446.171 161.212 446.183 161.23 446.205C161.248 446.227 161.258 446.256 161.258 446.287C161.258 446.318 161.248 446.347 161.23 446.369C161.212 446.391 161.188 446.403 161.162 446.404V446.404Z" fill="#E6E6E6"/>
<path d="M118.574 335.687V239.138C118.575 238.041 118.938 236.989 119.584 236.213C120.23 235.438 121.106 235.001 122.019 235H185.57C186.483 235.001 187.359 235.438 188.005 236.213C188.651 236.989 189.014 238.041 189.015 239.138V335.687C189.014 336.784 188.651 337.835 188.005 338.611C187.359 339.387 186.483 339.823 185.57 339.824H122.019C121.106 339.823 120.23 339.387 119.584 338.611C118.938 337.835 118.575 336.784 118.574 335.687V335.687ZM122.019 235.92C121.309 235.92 120.628 236.26 120.125 236.863C119.623 237.467 119.34 238.285 119.339 239.138V335.687C119.34 336.54 119.623 337.358 120.125 337.961C120.628 338.565 121.309 338.904 122.019 338.905H185.57C186.28 338.904 186.961 338.565 187.464 337.961C187.966 337.358 188.249 336.54 188.25 335.687V239.138C188.249 238.285 187.966 237.467 187.464 236.863C186.961 236.26 186.28 235.92 185.57 235.92H122.019Z" fill="#E6E6E6"/>
<path d="M157.358 279.34V259.515C157.359 258.967 157.54 258.441 157.863 258.053C158.186 257.665 158.624 257.447 159.081 257.446H173.07C173.526 257.447 173.964 257.665 174.287 258.053C174.61 258.441 174.792 258.967 174.792 259.515V279.34C174.792 279.888 174.61 280.414 174.287 280.802C173.964 281.19 173.526 281.408 173.07 281.409H159.081C158.624 281.408 158.186 281.19 157.863 280.802C157.54 280.414 157.359 279.888 157.358 279.34V279.34Z" fill="#FF63EF"/>
<path d="M130.177 288.535V268.71C130.177 268.162 130.359 267.636 130.682 267.248C131.005 266.86 131.443 266.642 131.9 266.641H145.888C146.345 266.642 146.783 266.86 147.106 267.248C147.429 267.636 147.611 268.162 147.611 268.71V288.535C147.611 289.083 147.429 289.609 147.106 289.997C146.783 290.385 146.345 290.603 145.888 290.604H131.9C131.443 290.603 131.005 290.385 130.682 289.997C130.359 289.609 130.177 289.083 130.177 288.535V288.535Z" fill="#E6E6E6"/>
<path d="M151.999 316.58V296.755C151.999 296.207 152.181 295.681 152.504 295.293C152.827 294.905 153.264 294.687 153.721 294.686H167.71C168.167 294.687 168.605 294.905 168.928 295.293C169.251 295.681 169.432 296.207 169.433 296.755V316.58C169.432 317.128 169.251 317.654 168.928 318.042C168.605 318.43 168.167 318.648 167.71 318.649H153.721C153.264 318.648 152.827 318.43 152.504 318.042C152.181 317.654 151.999 317.128 151.999 316.58V316.58Z" fill="#FF6584"/>
<path d="M235.595 407.216H221.201C221.065 407.216 220.93 407.254 220.807 407.326L217.175 409.51C217.055 409.571 216.953 409.673 216.882 409.803C216.81 409.933 216.772 410.086 216.772 410.242C216.772 410.398 216.81 410.55 216.882 410.681C216.953 410.811 217.055 410.913 217.175 410.974L220.807 413.158C220.93 413.23 221.065 413.268 221.201 413.268H235.595C235.793 413.281 235.988 413.201 236.137 413.043C236.286 412.886 236.378 412.664 236.392 412.426V408.058C236.378 407.82 236.286 407.598 236.137 407.441C235.988 407.283 235.793 407.202 235.595 407.216Z" fill="#3F3D56"/>
<path d="M236.392 408.058V412.426C236.378 412.664 236.286 412.886 236.137 413.043C235.988 413.201 235.793 413.281 235.595 413.268H232.727V407.216H235.595C235.793 407.202 235.988 407.283 236.137 407.441C236.286 407.598 236.378 407.82 236.392 408.058V408.058Z" fill="#6C63FF"/>
<path d="M235.486 374.538C236.138 374.2 236.842 374.032 237.552 374.043C238.262 374.055 238.962 374.246 239.606 374.606C240.25 374.965 240.824 375.483 241.289 376.127C241.755 376.771 242.102 377.526 242.308 378.342C242.372 378.601 242.421 378.865 242.454 379.131L262.582 391.118L267.24 387.411L273.036 395.424L265.923 402.361C265.068 403.189 264.013 403.663 262.916 403.714C261.818 403.765 260.736 403.389 259.83 402.643L239.409 385.683C239.257 385.761 239.102 385.829 238.944 385.887C238.264 386.134 237.549 386.205 236.844 386.097C236.14 385.989 235.462 385.703 234.857 385.258C234.251 384.814 233.73 384.22 233.328 383.517C232.926 382.814 232.653 382.016 232.526 381.177C232.488 380.934 232.463 380.688 232.451 380.44C232.395 379.202 232.655 377.973 233.198 376.917C233.74 375.862 234.539 375.032 235.486 374.538V374.538Z" fill="#FFB8B8"/>
<path d="M277.408 448.338H255.416C255.416 449.097 232.749 449.713 232.749 449.713C232.393 450.035 232.069 450.404 231.783 450.814C230.922 452.047 230.451 453.605 230.454 455.215V456.315C230.454 458.139 231.058 459.887 232.132 461.177C233.205 462.466 234.662 463.191 236.18 463.192H277.408C278.927 463.19 280.382 462.465 281.456 461.176C282.53 459.887 283.133 458.138 283.135 456.315V455.215C283.132 453.392 282.529 451.644 281.455 450.355C280.382 449.066 278.926 448.34 277.408 448.338V448.338Z" fill="#3F3D56"/>
<path d="M253.485 509.13H259.44V462.919H253.485V509.13Z" fill="#3F3D56"/>
<path d="M236.536 508.879C236.536 509.651 245.56 509.178 256.692 509.178C267.824 509.178 276.848 509.651 276.848 508.879C276.848 508.106 267.824 501.978 256.692 501.978C245.56 501.978 236.536 508.106 236.536 508.879Z" fill="#3F3D56"/>
<path d="M241.912 503.462L236.296 503.462L233.624 485.969L241.913 485.97L241.912 503.462Z" fill="#FFB8B8"/>
<path d="M243.344 510L225.235 509.999V509.724C225.235 508.613 225.418 507.512 225.772 506.485C226.126 505.458 226.645 504.525 227.3 503.739C227.954 502.953 228.731 502.329 229.587 501.904C230.442 501.479 231.358 501.26 232.284 501.26H232.284L243.344 501.26L243.344 510Z" fill="#2F2E41"/>
<path d="M233.512 492.615L222.316 462.463C221.381 459.922 221.278 457.051 222.026 454.422C222.775 451.793 224.321 449.6 226.355 448.278L250.641 432.639L261.722 431.507L271.944 430.391L272.018 430.541C272.112 430.733 274.31 435.292 272.825 440.291C271.698 444.082 268.766 447.044 264.112 449.094C253.249 453.877 240.7 457.966 235.808 459.501C235.592 459.568 235.39 459.688 235.216 459.855C235.041 460.022 234.898 460.231 234.796 460.469C234.693 460.705 234.632 460.963 234.616 461.228C234.601 461.493 234.631 461.759 234.706 462.009L245.107 490.074C245.216 490.43 245.255 490.811 245.222 491.188C245.188 491.565 245.083 491.928 244.915 492.248C244.746 492.569 244.518 492.839 244.249 493.037C243.98 493.235 243.677 493.356 243.362 493.391L235.59 494.071C235.524 494.078 235.458 494.082 235.393 494.082C234.995 494.082 234.605 493.943 234.272 493.683C233.938 493.422 233.674 493.051 233.512 492.615V492.615Z" fill="#2F2E41"/>
<path d="M244.66 503.462L239.045 503.462L236.372 485.969L244.661 485.97L244.66 503.462Z" fill="#FFB8B8"/>
<path d="M246.093 510L227.984 509.999V509.724C227.984 508.613 228.166 507.512 228.521 506.485C228.875 505.458 229.394 504.525 230.048 503.739C230.703 502.953 231.48 502.329 232.335 501.904C233.19 501.479 234.107 501.26 235.032 501.26H235.033L246.093 501.26L246.093 510Z" fill="#2F2E41"/>
<path d="M236.719 494.265L225.522 464.114C224.588 461.572 224.484 458.701 225.233 456.073C225.982 453.444 227.527 451.25 229.562 449.929L253.847 434.29L264.929 433.158L275.151 432.042L275.225 432.192C275.319 432.383 277.517 436.942 276.031 441.941C274.904 445.733 271.973 448.695 267.319 450.744C256.456 455.528 243.906 459.616 239.015 461.152C238.799 461.218 238.597 461.339 238.422 461.506C238.248 461.672 238.105 461.882 238.002 462.12C237.9 462.355 237.839 462.613 237.823 462.878C237.808 463.143 237.838 463.409 237.912 463.66L248.314 491.725C248.423 492.081 248.462 492.462 248.428 492.839C248.395 493.216 248.29 493.578 248.121 493.899C247.953 494.219 247.725 494.489 247.456 494.687C247.187 494.885 246.883 495.007 246.569 495.042L238.797 495.721C238.731 495.729 238.665 495.732 238.6 495.732C238.202 495.732 237.812 495.594 237.478 495.333C237.144 495.073 236.881 494.702 236.719 494.265V494.265Z" fill="#2F2E41"/>
<path d="M231.138 402.156C226.433 394.64 222.714 386.304 220.109 377.437C219.958 376.907 219.969 376.329 220.14 375.807C220.31 375.286 220.629 374.853 221.04 374.588L237.14 364.228C237.4 364.059 237.689 363.964 237.985 363.949C238.281 363.935 238.576 364.002 238.846 364.144C239.123 364.289 239.368 364.506 239.563 364.781C239.758 365.056 239.899 365.381 239.974 365.731C241.848 374.276 245.37 382.17 250.256 388.777C250.457 389.046 250.605 389.366 250.687 389.714C250.77 390.061 250.785 390.427 250.732 390.783C250.681 391.133 250.564 391.465 250.39 391.752C250.216 392.04 249.99 392.276 249.729 392.443L233.629 402.803C233.217 403.067 232.741 403.147 232.285 403.028C231.829 402.909 231.422 402.6 231.138 402.156V402.156Z" fill="#E6E6E6"/>
<path d="M232.237 401.164C232.323 401.294 232.445 401.383 232.581 401.417C232.716 401.451 232.857 401.426 232.98 401.348L249.08 390.988C249.158 390.939 249.226 390.869 249.277 390.784C249.329 390.698 249.364 390.599 249.379 390.495C249.395 390.385 249.391 390.271 249.365 390.164C249.339 390.056 249.293 389.957 249.23 389.874C244.2 383.073 240.574 374.946 238.645 366.15C238.622 366.041 238.579 365.94 238.519 365.855C238.459 365.769 238.383 365.702 238.297 365.657C238.217 365.614 238.129 365.594 238.041 365.598C237.952 365.603 237.866 365.631 237.789 365.683L221.689 376.042C221.567 376.122 221.472 376.249 221.42 376.404C221.369 376.558 221.363 376.73 221.405 376.888C223.963 385.596 227.616 393.783 232.237 401.164V401.164Z" fill="white"/>
<path d="M284.624 399.392L272.015 405.146L268.937 394.877C268.528 393.513 268.534 392.02 268.953 390.661C269.372 389.302 270.178 388.165 271.228 387.45V387.45C272.29 386.728 273.533 386.485 274.731 386.766C275.929 387.047 277.004 387.833 277.762 388.982L284.624 399.392Z" fill="#6C63FF"/>
<path d="M252.553 440.08C252.288 439.855 252.065 439.564 251.901 439.227C251.736 438.891 251.633 438.516 251.599 438.128C249.984 420.023 251.109 405.855 255.037 394.813C255.729 392.908 256.771 391.217 258.086 389.866C259.4 388.515 260.953 387.539 262.626 387.012L272.819 386.394L272.871 386.425C275.171 387.778 277.047 389.985 278.22 392.719C279.394 395.453 279.802 398.568 279.385 401.602C276.107 411.98 273.362 422.784 275.455 431.5C275.543 431.864 275.569 432.246 275.531 432.623C275.492 432.999 275.391 433.363 275.234 433.692C275.081 434.009 274.875 434.286 274.629 434.504C274.384 434.723 274.104 434.878 273.806 434.962L254.393 440.508C254.079 440.598 253.752 440.606 253.435 440.532C253.117 440.458 252.817 440.304 252.553 440.08Z" fill="#6C63FF"/>
<path d="M269.417 381.823C275.631 381.823 280.668 375.773 280.668 368.311C280.668 360.848 275.631 354.799 269.417 354.799C263.203 354.799 258.166 360.848 258.166 368.311C258.166 375.773 263.203 381.823 269.417 381.823Z" fill="#FFB8B8"/>
<path d="M238.197 379.012L229.428 383.661C229.095 383.837 228.717 383.847 228.377 383.689C228.037 383.531 227.763 383.218 227.616 382.817L227.399 382.227C227.252 381.827 227.244 381.373 227.375 380.965C227.507 380.557 227.768 380.228 228.101 380.051L236.87 375.403C237.203 375.226 237.581 375.216 237.921 375.374C238.261 375.532 238.535 375.846 238.682 376.246L238.899 376.836C239.046 377.237 239.054 377.691 238.923 378.099C238.791 378.507 238.53 378.835 238.197 379.012V379.012Z" fill="#E6E6E6"/>
<path d="M241.403 386.164L232.635 390.813C232.301 390.989 231.923 390.999 231.583 390.841C231.244 390.683 230.97 390.369 230.823 389.969L230.606 389.379C230.459 388.979 230.45 388.525 230.582 388.117C230.714 387.709 230.975 387.38 231.308 387.203L240.077 382.554C240.41 382.378 240.788 382.368 241.128 382.526C241.468 382.684 241.741 382.998 241.889 383.398L242.106 383.988C242.252 384.388 242.261 384.842 242.129 385.25C241.998 385.658 241.737 385.987 241.403 386.164V386.164Z" fill="#E6E6E6"/>
<path d="M248.166 414.098L228.617 395.578C228.461 395.643 228.303 395.7 228.142 395.746C227.452 395.94 226.736 395.957 226.04 395.797C225.344 395.636 224.684 395.302 224.103 394.815C223.518 394.328 223.026 393.697 222.66 392.963C222.295 392.229 222.064 391.41 221.983 390.561C221.852 389.203 222.107 387.831 222.707 386.669C223.306 385.507 224.215 384.622 225.286 384.158C225.954 383.87 226.666 383.755 227.374 383.821C228.082 383.886 228.77 384.13 229.394 384.537C230.018 384.944 230.563 385.505 230.994 386.183C231.425 386.86 231.732 387.64 231.894 388.47C231.945 388.733 231.98 389 231.999 389.269L251.46 402.751L256.303 399.403L261.667 407.837L254.148 414.274C253.268 415.021 252.21 415.407 251.133 415.376C250.055 415.344 249.015 414.896 248.166 414.098V414.098Z" fill="#FFB8B8"/>
<path d="M264.053 410.464L252.899 401.355L258.141 392.439C258.837 391.256 259.859 390.405 261.026 390.039C262.194 389.672 263.432 389.813 264.521 390.437V390.437C265.623 391.068 266.501 392.151 266.996 393.491C267.491 394.831 267.571 396.34 267.221 397.744L264.053 410.464Z" fill="#6C63FF"/>
<path d="M265.292 366.298C262.4 368.675 258.603 371.118 255.65 368.587C253.71 366.925 253.099 363.847 253.886 361.147C255.3 356.29 259.186 354.151 262.901 352.512C267.731 350.382 272.991 348.687 277.977 350.213C282.964 351.738 287.371 357.536 286.471 363.621C285.747 368.514 281.904 372.585 282.449 377.512C282.998 382.47 287.641 385.079 291.74 385.965C295.839 386.851 300.426 387.136 303.371 390.672C307.129 395.182 306.191 403.244 302.655 408.006C299.119 412.769 293.783 414.927 288.613 416.395C281.762 418.339 274.353 419.361 267.846 416.134C261.34 412.907 256.277 404.221 258.162 396.076C258.958 392.636 260.833 389.728 262.646 386.897C264.458 384.067 266.293 381.107 266.985 377.634C267.561 374.74 267.135 371.379 265.536 369.209C265.246 368.829 265.063 368.348 265.014 367.835C264.965 367.322 265.053 366.804 265.264 366.355L265.292 366.298Z" fill="#2F2E41"/>
</g>
<rect x="0.5" y="0.5" width="512" height="535" rx="20.5" stroke="black" stroke-opacity="0.55"/>
</g>
<defs>
<filter id="filter0_b" x="-25" y="-25" width="596" height="586" filterUnits="userSpaceOnUse" color-interpolation-filters="sRGB">
<feFlood flood-opacity="0" result="BackgroundImageFix"/>
<feGaussianBlur in="BackgroundImage" stdDeviation="12.5"/>
<feComposite in2="SourceAlpha" operator="in" result="effect1_backgroundBlur"/>
<feBlend mode="normal" in="SourceGraphic" in2="effect1_backgroundBlur" result="shape"/>
</filter>
<linearGradient id="paint0_linear" x1="256.5" y1="1" x2="256.5" y2="535" gradientUnits="userSpaceOnUse">
<stop offset="0.5625" stop-color="#3D567C" stop-opacity="0.79"/>
<stop offset="1" stop-color="#C4C4C4"/>
</linearGradient>
<clipPath id="clip0">
<rect width="317" height="275" fill="white" transform="translate(4 235)"/>
</clipPath>
</defs>
</svg>
